/* XPM */
static char * bottom_left_inactive_xpm[] = {
"6 6 3 1",
" 	c None",
".	c #3C3C3C",
"+	c #2E2E2E",
"+.....",
"+.....",
"+.....",
"+.....",
"+.....",
"++++++"};

