/* XPM */
static char * bottom_active_xpm[] = {
"6 4 3 1",
" 	c None",
".	c #3C3C3C",
"+	c #2E2E2E",
"......",
"......",
"......",
"++++++"};
