/* XPM */
static char * close_inactive_xpm[] = {
"35 29 4 1",
" 	c None",
".	c #3C3C3C",
"+	c #BABABA",
"@	c #575757",
"...................................",
"...................................",
"...................................",
"...................................",
"...................................",
"...................................",
"...................................",
"...................................",
"...................................",
"...................................",
".............+@.....@+.............",
".............@+@...@+@.............",
"..............@+@.@+@..............",
"...............@+@+@...............",
"................@+@................",
"...............@+@+@...............",
"..............@+@.@+@..............",
".............@+@...@+@.............",
".............+@.....@+.............",
"...................................",
"...................................",
"...................................",
"...................................",
"...................................",
"...................................",
"...................................",
"...................................",
"...................................",
"..................................."};
