/* XPM */
static char * close_active_xpm[] = {
"35 29 5 1",
" 	c None",
".	c #3C3C3C",
"+	c #BABABA",
"@	c #575757",
"#	c #2E2E2E",
"###################################",
"...................................",
"...................................",
"...................................",
"...................................",
"...................................",
"...................................",
"...................................",
"...................................",
"...................................",
".............+@.....@+.............",
".............@+@...@+@.............",
"..............@+@.@+@..............",
"...............@+@+@...............",
"................@+@................",
"...............@+@+@...............",
"..............@+@.@+@..............",
".............@+@...@+@.............",
".............+@.....@+.............",
"...................................",
"...................................",
"...................................",
"...................................",
"...................................",
"...................................",
"...................................",
"...................................",
"...................................",
"###################################"};
