/* XPM */
static char * hide_prelight_xpm[] = {
"35 29 4 1",
" 	c None",
".	c #4A4A4A",
"+	c #BABABA",
"@	c #2E2E2E",
"@@@@@@@@@@@@@@@@@@@@@@@@@@@@@@@@@@@",
"...................................",
"...................................",
"...................................",
"...................................",
"...................................",
"...................................",
"...................................",
"...................................",
"...................................",
"...................................",
"...................................",
"...................................",
"...................................",
".............+++++++++.............",
"...................................",
"...................................",
"...................................",
"...................................",
"...................................",
"...................................",
"...................................",
"...................................",
"...................................",
"...................................",
"...................................",
"...................................",
"...................................",
"@@@@@@@@@@@@@@@@@@@@@@@@@@@@@@@@@@@"};
