/* XPM */
static char * top_left_active_xpm[] = {
"4 29 3 1",
" 	c None",
".	c #3C3C3C",
"+	c #2E2E2E",
"++++",
"+...",
"+...",
"+...",
"+...",
"+...",
"+...",
"+...",
"+...",
"+...",
"+...",
"+...",
"+...",
"+...",
"+...",
"+...",
"+...",
"+...",
"+...",
"+...",
"+...",
"+...",
"+...",
"+...",
"+...",
"+...",
"+...",
"+...",
"+..."};
