/* XPM */
static char * bottom_left_active_xpm[] = {
"11 11 3 1",
" 	c None",
".	c #3C3C3C",
"+	c #2E2E2E",
"     +.....",
"     +.....",
"     +.....",
"     +.....",
"     +.....",
"     ++++++",
"           ",
"           ",
"           ",
"           ",
"           "};
