/* XPM */
static char * close_pressed_xpm[] = {
"35 34 4 1",
" 	c None",
".	c #C64C4C",
"+	c #FCFCFC",
"#	c #2E2E2E",
"                                   ",
"                                   ",
"                                   ",
"                                   ",
"                                   ",
"###################################",
"...................................",
"...................................",
"...................................",
"...................................",
"...................................",
"...................................",
"...................................",
"...................................",
"...................................",
".............+.......+.............",
"..............+.....+..............",
"...............+...+...............",
"................+.+................",
".................+.................",
"................+.+................",
"...............+...+...............",
"..............+.....+..............",
".............+.......+.............",
"...................................",
"...................................",
"...................................",
"...................................",
"...................................",
"...................................",
"...................................",
"...................................",
"...................................",
"###################################"};
