/* XPM */
static char * maximize_active_xpm[] = {
"35 34 4 1",
" 	c None",
".	c #3C3C3C",
"+	c #BABABA",
"#	c #2E2E2E",
"                                   ",
"                                   ",
"                                   ",
"                                   ",
"                                   ",
"###################################",
"...................................",
"...................................",
"...................................",
"...................................",
"...................................",
"...................................",
"...................................",
"...................................",
"...................................",
".............+++++++++.............",
".............+++++++++.............",
".............+++++++++.............",
".............+.......+.............",
".............+.......+.............",
".............+.......+.............",
".............+.......+.............",
".............+.......+.............",
".............+++++++++.............",
"...................................",
"...................................",
"...................................",
"...................................",
"...................................",
"...................................",
"...................................",
"...................................",
"...................................",
"###################################"};
