/* XPM */
static char * title_3_inactive_xpm[] = {
"1 34 3 1",
" 	c None",
".	c #3C3C3C",
"#	c #2E2E2E",
" ",
" ",
" ",
" ",
" ",
"#",
".",
".",
".",
".",
".",
".",
".",
".",
".",
".",
".",
".",
".",
".",
".",
".",
".",
".",
".",
".",
".",
".",
".",
".",
".",
".",
".",
"#"};
