/* XPM */
static char * top_left_inactive_xpm[] = {
"9 34 3 1",
" 	c None",
".	c #3C3C3C",
"+	c #2E2E2E",
"         ",
"         ",
"         ",
"         ",
"         ",
"     ++++",
"     +...",
"     +...",
"     +...",
"     +...",
"     +...",
"     +...",
"     +...",
"     +...",
"     +...",
"     +...",
"     +...",
"     +...",
"     +...",
"     +...",
"     +...",
"     +...",
"     +...",
"     +...",
"     +...",
"     +...",
"     +...",
"     +...",
"     +...",
"     +...",
"     +...",
"     +...",
"     +...",
"     +..."};
