/* XPM */
static char * top_left_active_xpm[] = {
"9 34 2 1",
" 	c None",
".	c #3C3C3C",
"         ",
"         ",
"         ",
"         ",
"         ",
"     ....",
"     ....",
"     ....",
"     ....",
"     ....",
"     ....",
"     ....",
"     ....",
"     ....",
"     ....",
"     ....",
"     ....",
"     ....",
"     ....",
"     ....",
"     ....",
"     ....",
"     ....",
"     ....",
"     ....",
"     ....",
"     ....",
"     ....",
"     ....",
"     ....",
"     ....",
"     ....",
"     ....",
"     ...."};
