/* XPM */
static char * top_left_inactive_xpm[] = {
"9 34 2 1",
" 	c None",
".	c #3C3C3C",
"         ",
"         ",
"         ",
"         ",
"         ",
"     ....",
"     ....",
"     ....",
"     ....",
"     ....",
"     ....",
"     ....",
"     ....",
"     ....",
"     ....",
"     ....",
"     ....",
"     ....",
"     ....",
"     ....",
"     ....",
"     ....",
"     ....",
"     ....",
"     ....",
"     ....",
"     ....",
"     ....",
"     ....",
"     ....",
"     ....",
"     ....",
"     ....",
"     ...."};
